<svg width="50" height="50" viewBox="0 0 50 50" fill="none" xmlns="http://www.w3.org/2000/svg">
<g clip-path="url(#clip0_84_1472)">
<path d="M41.9184 38.3941C41.9184 38.9843 41.5191 39.4097 40.9462 39.4097C40.3559 39.4097 39.974 38.9583 39.974 38.3941C39.974 37.8298 40.3559 37.3784 40.9462 37.3784C41.5191 37.3784 41.9184 37.8298 41.9184 38.3941ZM14.9392 37.3784C14.3229 37.3784 13.967 37.8298 13.967 38.3941C13.967 38.9583 14.3229 39.4097 14.9392 39.4097C15.5035 39.4097 15.8854 38.9843 15.8854 38.3941C15.8767 37.8298 15.5035 37.3784 14.9392 37.3784ZM25.1389 37.3524C24.6701 37.3524 24.3837 37.6562 24.3142 38.1076H25.9722C25.8941 37.6128 25.5903 37.3524 25.1389 37.3524ZM34.4965 37.3784C33.9062 37.3784 33.5503 37.8298 33.5503 38.3941C33.5503 38.9583 33.9062 39.4097 34.4965 39.4097C35.0868 39.4097 35.4688 38.9843 35.4688 38.3941C35.4688 37.8298 35.0868 37.3784 34.4965 37.3784ZM43.6892 39.6441C43.6892 39.6701 43.7153 39.6875 43.7153 39.7396C43.7153 39.7656 43.6892 39.783 43.6892 39.835C43.6632 39.8611 43.6632 39.8784 43.6458 39.9045C43.6198 39.9305 43.6024 39.9479 43.5503 39.9479C43.5243 39.9739 43.5069 39.9739 43.4549 39.9739C43.4288 39.9739 43.4115 39.9739 43.3594 39.9479C43.3333 39.9479 43.316 39.9218 43.2899 39.9045C43.2639 39.8784 43.2465 39.8611 43.2465 39.835C43.2205 39.7916 43.2205 39.7656 43.2205 39.7396C43.2205 39.6961 43.2205 39.6701 43.2465 39.6441C43.2465 39.6007 43.2726 39.5746 43.2899 39.5486C43.316 39.5225 43.3333 39.5225 43.3594 39.5052C43.4028 39.4791 43.4288 39.4791 43.4549 39.4791C43.4983 39.4791 43.5243 39.4791 43.5503 39.5052C43.5938 39.5312 43.6198 39.5312 43.6458 39.5486C43.6719 39.5659 43.6632 39.6007 43.6892 39.6441ZM43.4983 39.7656C43.5417 39.7656 43.5417 39.7396 43.5677 39.7396C43.5937 39.7135 43.5938 39.6961 43.5938 39.6701C43.5938 39.6441 43.5937 39.6267 43.5677 39.6007C43.5417 39.6007 43.5243 39.5746 43.4722 39.5746H43.3333V39.8784H43.4028V39.7569H43.4288L43.5243 39.8784H43.5938L43.4983 39.7656ZM50 9.809V40.3646C50 42.6649 48.1337 44.5312 45.8333 44.5312H4.16667C1.86632 44.5312 0 42.6649 0 40.3646V9.809C0 7.50865 1.86632 5.64233 4.16667 5.64233H45.8333C48.1337 5.64233 50 7.50865 50 9.809ZM5.55556 21.9271C5.55556 28.5677 10.9462 33.9496 17.5781 33.9496C19.9392 33.9496 22.2569 33.2378 24.2188 31.9444C17.8906 26.7968 17.934 17.0833 24.2188 11.9357C22.2569 10.6337 19.9392 9.93053 17.5781 9.93053C10.9462 9.92185 5.55556 15.3125 5.55556 21.9271ZM25 31.3715C31.1198 26.5972 31.0937 17.2916 25 12.4913C18.9062 17.2916 18.8802 26.6059 25 31.3715ZM12.6476 37.9948C12.6476 37.2396 12.1528 36.7448 11.3715 36.7187C10.9722 36.7187 10.5469 36.8402 10.2604 37.283C10.0521 36.9271 9.69618 36.7187 9.20139 36.7187C8.87153 36.7187 8.54167 36.8402 8.28125 37.1875V36.8055H7.56944V39.9913H8.28125C8.28125 38.3507 8.06424 37.3698 9.0625 37.3698C9.94792 37.3698 9.77431 38.2552 9.77431 39.9913H10.4601C10.4601 38.4027 10.2431 37.3698 11.2413 37.3698C12.1267 37.3698 11.9531 38.2378 11.9531 39.9913H12.6649V37.9948H12.6476ZM16.5451 36.8055H15.8594V37.1875C15.625 36.901 15.2951 36.7187 14.8437 36.7187C13.9497 36.7187 13.2639 37.4305 13.2639 38.3941C13.2639 39.3663 13.9497 40.0694 14.8437 40.0694C15.2951 40.0694 15.625 39.9045 15.8594 39.6007V40H16.5451V36.8055ZM20.0608 39.0277C20.0608 37.7257 18.0729 38.3159 18.0729 37.7083C18.0729 37.2135 19.1059 37.2916 19.6788 37.6128L19.9653 37.0486C19.1493 36.5191 17.3438 36.5277 17.3438 37.7604C17.3438 39.0017 19.3316 38.4809 19.3316 39.0625C19.3316 39.6093 18.1597 39.5659 17.5347 39.1319L17.2309 39.6788C18.2031 40.3385 20.0608 40.1996 20.0608 39.0277ZM23.1337 39.835L22.9427 39.2448C22.6128 39.4271 21.8837 39.6267 21.8837 38.8889V37.4479H23.0208V36.8055H21.8837V35.8333H21.1719V36.8055H20.5122V37.4392H21.1719V38.8889C21.1719 40.4166 22.6736 40.1389 23.1337 39.835ZM24.2882 38.6718H26.6753C26.6753 37.2656 26.033 36.71 25.1649 36.71C24.2448 36.71 23.5851 37.3958 23.5851 38.3854C23.5851 40.1649 25.5469 40.46 26.5191 39.618L26.1892 39.0972C25.5122 39.6527 24.4878 39.6007 24.2882 38.6718ZM29.4184 36.8055C29.0191 36.6319 28.4115 36.6493 28.099 37.1875V36.8055H27.3872V39.9913H28.099V38.1944C28.099 37.1875 28.9236 37.3177 29.2101 37.4652L29.4184 36.8055ZM30.3385 38.3941C30.3385 37.4045 31.3455 37.0833 32.1354 37.6649L32.4653 37.1007C31.4583 36.3107 29.6267 36.7448 29.6267 38.4027C29.6267 40.1215 31.5712 40.4687 32.4653 39.7048L32.1354 39.1406C31.3368 39.7048 30.3385 39.3663 30.3385 38.3941ZM36.1285 36.8055H35.4167V37.1875C34.6962 36.2326 32.8212 36.7708 32.8212 38.3941C32.8212 40.0607 34.7656 40.5382 35.4167 39.6007V40H36.1285V36.8055ZM39.0538 36.8055C38.8455 36.7014 38.099 36.5538 37.7344 37.1875V36.8055H37.0486V39.9913H37.7344V38.1944C37.7344 37.2396 38.5156 37.3003 38.8455 37.4652L39.0538 36.8055ZM42.5521 35.5121H41.8663V37.1875C41.1545 36.2413 39.2708 36.7448 39.2708 38.3941C39.2708 40.0781 41.224 40.5295 41.8663 39.6007V40H42.5521V35.5121ZM43.2118 28.993V29.3923H43.2812V28.993H43.4462V28.9236H43.0469V28.993H43.2118ZM43.7847 39.7396C43.7847 39.6961 43.7847 39.6441 43.7587 39.6007C43.7326 39.5746 43.7153 39.5312 43.6892 39.5052C43.6632 39.4791 43.6198 39.4618 43.5938 39.4357C43.5503 39.4357 43.4983 39.4097 43.4549 39.4097C43.4288 39.4097 43.3854 39.4357 43.3333 39.4357C43.2899 39.4618 43.2639 39.4791 43.2378 39.5052C43.1944 39.5312 43.1684 39.5746 43.1684 39.6007C43.1424 39.6441 43.1424 39.6961 43.1424 39.7396C43.1424 39.7656 43.1424 39.809 43.1684 39.8611C43.1684 39.8871 43.1944 39.9305 43.2378 39.9566C43.2639 39.9826 43.2812 40 43.3333 40.026C43.3767 40.0521 43.4288 40.0521 43.4549 40.0521C43.4983 40.0521 43.5503 40.0521 43.5938 40.026C43.6198 40 43.6632 39.9826 43.6892 39.9566C43.7153 39.9305 43.7326 39.8871 43.7587 39.8611C43.7847 39.809 43.7847 39.7656 43.7847 39.7396ZM44.0625 28.9149H43.941L43.8021 29.2187L43.6632 28.9149H43.5417V29.3836H43.6111V29.0277L43.75 29.3316H43.8455L43.967 29.0277V29.3836H44.0625V28.9149ZM44.4444 21.9271C44.4444 15.3125 39.0538 9.92185 32.4219 9.92185C30.0608 9.92185 27.7431 10.6337 25.7812 11.9271C32.0399 17.0746 32.1354 26.8142 25.7812 31.9357C27.7431 33.2378 30.0781 33.9409 32.4219 33.9409C39.0538 33.9496 44.4444 28.5677 44.4444 21.9271Z" fill="white"/>
</g>
<defs>
<clipPath id="clip0_84_1472">
<rect width="50" height="50" fill="white"/>
</clipPath>
</defs>
</svg>
