<svg width="50" height="50" viewBox="0 0 50 50" fill="none" xmlns="http://www.w3.org/2000/svg">
<g clip-path="url(#clip0_84_1343)">
<path d="M42.7431 21.9444C41.9705 21.9444 41.1198 22.526 41.1198 23.9149H44.3056C44.3056 22.526 43.4983 21.9444 42.7431 21.9444ZM32.5521 22.1701C31.8403 22.1701 31.3976 22.4219 31.0764 22.7778L31.0938 27.3611C31.3976 27.6823 31.8316 27.9427 32.5521 27.9427C33.6892 27.9427 34.4531 26.7014 34.4531 25.0434C34.4531 23.4288 33.6719 22.1614 32.5521 22.1701ZM45.8333 5.55554H4.16667C1.86632 5.55554 0 7.42186 0 9.72221V40.2778C0 42.5781 1.86632 44.4444 4.16667 44.4444H45.8333C48.1337 44.4444 50 42.5781 50 40.2778V9.72221C50 7.42186 48.1337 5.55554 45.8333 5.55554ZM10.6076 27.1788C10.6076 29.401 8.84549 30.6597 6.27604 30.6771C5.21701 30.6771 4.05382 30.4687 2.90799 29.9739V27.0312C3.94965 27.5868 5.26042 28.0121 6.28472 28.0121C6.97049 28.0121 7.46528 27.8298 7.46528 27.2569C7.46528 25.7812 2.77778 26.3368 2.77778 22.9253C2.77778 20.7378 4.44444 19.4357 6.94444 19.4357C7.96875 19.4357 8.98438 19.592 10.0087 20V22.8993C9.07118 22.3958 7.88194 22.1094 6.94444 22.1094C6.2934 22.1094 5.8941 22.3003 5.8941 22.7778C5.8941 24.1667 10.6076 23.5069 10.6076 27.1788ZM16.5799 22.2656H14.2361V26.6493C14.2361 28.4635 16.1892 27.8993 16.5799 27.743V30.2517C16.1719 30.4774 15.4253 30.6597 14.4184 30.6597C12.5868 30.6597 11.2153 29.3142 11.2153 27.4913L11.2326 17.6042L14.2448 16.9618V19.6354H16.5799V22.2656ZM23.0035 22.4739C22.6128 22.3437 21.3802 22.1614 20.651 23.1163V30.4427H17.5694V19.6354H20.2344L20.4253 20.5469C21.1458 19.2187 22.5868 19.4878 22.9948 19.6354H23.0035V22.4739ZM26.8316 30.4427H23.7326V19.6354H26.8316V30.4427ZM26.8316 18.0382L23.7326 18.6979V16.1892L26.8316 15.5295V18.0382ZM33.2639 30.6684C32.1875 30.6684 31.5278 30.2083 31.0851 29.8871L31.0764 33.3767L27.9948 34.0278V19.6354H30.7118L30.8681 20.3993C31.2934 20.0087 32.0746 19.4357 33.2812 19.4357C35.4427 19.4357 37.4826 21.3889 37.4826 24.9739C37.4826 28.8889 35.4688 30.6597 33.2639 30.6684ZM47.1875 26.1979H41.1545C41.2934 27.6389 42.3524 28.0642 43.5503 28.0642C44.7743 28.0642 45.7378 27.8038 46.5799 27.3785V29.8611C45.7378 30.3212 44.6354 30.6597 43.1597 30.6597C40.1562 30.6597 38.0556 28.776 38.0556 25.0607C38.0556 21.9184 39.8351 19.4271 42.7691 19.4271C45.6944 19.4271 47.2222 21.9184 47.2222 25.0781C47.2222 25.3819 47.1962 26.0243 47.1875 26.1979Z" fill="white"/>
</g>
<defs>
<clipPath id="clip0_84_1343">
<rect width="50" height="50" fill="white"/>
</clipPath>
</defs>
</svg>
