<svg width="38" height="38" viewBox="0 0 38 38" fill="none" xmlns="http://www.w3.org/2000/svg">
<g clip-path="url(#clip0_84_1443)">
<g clip-path="url(#clip1_84_1443)">
<path d="M19 0.59375C8.83203 0.59375 0.59375 8.83203 0.59375 19C0.59375 29.168 8.83203 37.4062 19 37.4062C29.168 37.4062 37.4062 29.168 37.4062 19C37.4062 8.83203 29.168 0.59375 19 0.59375ZM28.0398 13.2035L25.0191 27.4387C24.7965 28.448 24.1953 28.693 23.3566 28.218L18.7551 24.8262L16.5359 26.9637C16.291 27.2086 16.0832 27.4164 15.6082 27.4164L15.9348 22.7332L24.4625 15.0293C24.8336 14.7027 24.3809 14.5172 23.891 14.8438L13.352 21.4789L8.80977 20.0613C7.82266 19.7496 7.80039 19.0742 9.01758 18.5992L26.7633 11.7562C27.5871 11.4594 28.307 11.9566 28.0398 13.2035Z" fill="white"/>
</g>
</g>
<defs>
<clipPath id="clip0_84_1443">
<rect width="38" height="38" fill="white"/>
</clipPath>
<clipPath id="clip1_84_1443">
<rect width="38" height="38" fill="white"/>
</clipPath>
</defs>
</svg>
