<svg width="50" height="50" viewBox="0 0 50 50" fill="none" xmlns="http://www.w3.org/2000/svg">
<path d="M25 25C31.9043 25 37.5 19.4043 37.5 12.5C37.5 5.5957 31.9043 0 25 0C18.0957 0 12.5 5.5957 12.5 12.5C12.5 19.4043 18.0957 25 25 25ZM34.3555 28.1836L29.6875 46.875L26.5625 33.5938L29.6875 28.125H20.3125L23.4375 33.5938L20.3125 46.875L15.6445 28.1836C8.68164 28.5156 3.125 34.209 3.125 41.25V45.3125C3.125 47.9004 5.22461 50 7.8125 50H42.1875C44.7754 50 46.875 47.9004 46.875 45.3125V41.25C46.875 34.209 41.3184 28.5156 34.3555 28.1836Z" fill="white"/>
</svg>
