<svg width="50" height="50" viewBox="0 0 50 50" fill="none" xmlns="http://www.w3.org/2000/svg">
<g clip-path="url(#clip0_84_1475)">
<path d="M40.8073 22.8559C40.8073 22.8559 41.467 26.0851 41.6146 26.7621H38.7153C39.0017 25.9896 40.1042 22.9861 40.1042 22.9861C40.0868 23.0121 40.3906 22.1962 40.5642 21.6927L40.8073 22.8559ZM50 9.72221V40.2778C50 42.5781 48.1337 44.4444 45.8333 44.4444H4.16667C1.86632 44.4444 0 42.5781 0 40.2778V9.72221C0 7.42186 1.86632 5.55554 4.16667 5.55554H45.8333C48.1337 5.55554 50 7.42186 50 9.72221ZM13.2378 31.5278L18.724 18.0555H15.0347L11.6233 27.2569L11.25 25.3906L10.0347 19.1927C9.83507 18.3333 9.21875 18.0903 8.45486 18.0555H2.83854L2.77778 18.3246C4.14931 18.6719 5.37326 19.1753 6.44097 19.809L9.54861 31.5278H13.2378ZM21.4323 31.5451L23.6198 18.0555H20.1302L17.9514 31.5451H21.4323ZM33.5764 27.1354C33.5937 25.5989 32.6562 24.4271 30.651 23.4635C29.4271 22.8472 28.6806 22.4305 28.6806 21.7969C28.6979 21.2239 29.3142 20.6337 30.6858 20.6337C31.8229 20.6076 32.6562 20.8767 33.2812 21.1458L33.5938 21.2934L34.0712 18.3767C33.3854 18.1076 32.2917 17.8038 30.9462 17.8038C27.5 17.8038 25.0781 19.6441 25.0608 22.2656C25.0347 24.2014 26.7969 25.2778 28.1163 25.9288C29.4618 26.5885 29.9219 27.0226 29.9219 27.6042C29.9045 28.5069 28.8281 28.9236 27.8299 28.9236C26.441 28.9236 25.6944 28.7066 24.5573 28.2031L24.0972 27.9861L23.6111 31.0156C24.4271 31.3889 25.9375 31.7187 27.5 31.7361C31.1632 31.7448 33.5503 29.9305 33.5764 27.1354ZM45.8333 31.5451L43.0208 18.0555H40.3212C39.4878 18.0555 38.8542 18.2986 38.4983 19.1753L33.316 31.5451H36.9792C36.9792 31.5451 37.5781 29.8785 37.7083 29.5226H42.1875C42.2917 30 42.6042 31.5451 42.6042 31.5451H45.8333Z" fill="white"/>
</g>
<defs>
<clipPath id="clip0_84_1475">
<rect width="50" height="50" fill="white"/>
</clipPath>
</defs>
</svg>
